HIERARCHY
ROOT RootJoint
{
    OFFSET   0.000000   0.000000   0.000000
    CHANNELS 6 Xposition Yposition Zposition Xrotation Yrotation Zrotation
    JOINT pelvis_lowerback
    {
        OFFSET   0.000000   0.093605   0.000000
        CHANNELS 3 Xrotation Yrotation Zrotation
        JOINT lowerback_torso
        {
            OFFSET   0.000000   0.100000   0.000000
            CHANNELS 3 Xrotation Yrotation Zrotation
            JOINT torso_head
            {
                OFFSET   0.000000   0.282350   0.000000
                CHANNELS 3 Xrotation Yrotation Zrotation
                End Site
                {
                    OFFSET   0.000000   0.192650   0.000000
                }
            }
            JOINT rTorso_Clavicle
            {
                OFFSET  -0.001000   0.157500   0.000000
                CHANNELS 3 Xrotation Yrotation Zrotation
                JOINT rShoulder
                {
                    OFFSET  -0.117647   0.000000   0.000000
                    CHANNELS 3 Xrotation Yrotation Zrotation
                    JOINT rElbow
                    {
                        OFFSET  -0.245000   0.000000   0.000000
                        CHANNELS 3 Xrotation Yrotation Zrotation
                        JOINT rWrist
                        {
                            OFFSET  -0.240000   0.000000   0.000000
                            CHANNELS 3 Xrotation Yrotation Zrotation
                            End Site
                            {
                                OFFSET  -0.116353  -0.002500   0.000000
                            }
                        }
                    }
                }
            }
            JOINT lTorso_Clavicle
            {
                OFFSET   0.001000   0.157500   0.000000
                CHANNELS 3 Xrotation Yrotation Zrotation
                JOINT lShoulder
                {
                    OFFSET   0.117647   0.000000   0.000000
                    CHANNELS 3 Xrotation Yrotation Zrotation
                    JOINT lElbow
                    {
                        OFFSET   0.245000   0.000000   0.000000
                        CHANNELS 3 Xrotation Yrotation Zrotation
                        JOINT lWrist
                        {
                            OFFSET   0.240000   0.000000   0.000000
                            CHANNELS 3 Xrotation Yrotation Zrotation
                            End Site
                            {
                                OFFSET   0.116353  -0.002500   0.000000
                            }
                        }
                    }
                }
            }
        }
    }
    JOINT rHip
    {
        OFFSET  -0.100000  -0.051395   0.000000
        CHANNELS 3 Xrotation Yrotation Zrotation
        JOINT rKnee
        {
            OFFSET   0.000000  -0.410000   0.000000
            CHANNELS 3 Xrotation Yrotation Zrotation
            JOINT rAnkle
            {
                OFFSET   0.000000  -0.390000   0.000000
                CHANNELS 3 Xrotation Yrotation Zrotation
                JOINT rToeJoint
                {
                    OFFSET   0.000000  -0.050000   0.130000
                    CHANNELS 3 Xrotation Yrotation Zrotation
                    End Site
                    {
                        OFFSET  -0.010000   0.002000   0.060000
                    }
                }
            }
        }
    }
    JOINT lHip
    {
        OFFSET   0.100000  -0.051395   0.000000
        CHANNELS 3 Xrotation Yrotation Zrotation
        JOINT lKnee
        {
            OFFSET   0.000000  -0.410000   0.000000
            CHANNELS 3 Xrotation Yrotation Zrotation
            JOINT lAnkle
            {
                OFFSET   0.000000  -0.390000   0.000000
                CHANNELS 3 Xrotation Yrotation Zrotation
                JOINT lToeJoint
                {
                    OFFSET   0.000000  -0.050000   0.130000
                    CHANNELS 3 Xrotation Yrotation Zrotation
                    End Site
                    {
                        OFFSET   0.010000   0.002000   0.060000
                    }
                }
            }
        }
    }
}
MOTION
Frames: 12
Frame Time:   0.008333
 -3.775066   0.879458   4.665258 -173.778985 -44.844926 -170.963741   8.215228   3.652040  -2.441613   4.155405  -0.171088   0.635593   0.156488  -4.936824   5.176767   0.923963   1.441274  15.165703   3.565042  12.135696  36.561419  -0.000868  42.055011  -0.002456   9.949435   4.177684   0.534763   5.866602   5.009418 -16.077817  17.434252  -5.907606 -45.128672   0.000058  -7.889233  -0.002508   9.771056  -1.525917  -7.212847  13.043569   8.897644   1.994656  19.893570  -0.000657  -0.005734 -22.692910  13.167192  -8.821962  -4.717702  -0.000001   0.001151 -20.426453 -11.137429   2.083674  10.205544  -0.009533   0.032757  -9.417135  -1.916971  -4.423109  -2.062633   0.000018  -0.000284
 -3.782639   0.878320   4.661142 -173.990909 -44.159878 -171.217830   8.121765   3.692474  -2.480557   4.161028  -0.121116   0.661032   0.133458  -4.874264   5.215847   1.011736   1.490353  15.191161   3.816677  12.139300  36.730474  -0.001629  41.083639  -0.004457   9.941850   4.439678   0.416175   5.790633   5.027260 -16.078161  17.421706  -6.025873 -45.094552   0.000239  -7.788285  -0.002476   9.732060  -1.541440  -7.219882  13.312629   9.107193   1.752892  20.326829  -0.000734  -0.006556 -22.712750  13.518765  -8.769547  -5.847710   0.000507   0.001328 -20.560191 -11.513225   1.989369  10.793674  -0.006149   0.020920  -9.199874  -2.244527  -4.288330  -1.944063   0.000362  -0.001530
 -3.790466   0.877408   4.656824 -174.188563 -43.422582 -171.432394   8.001867   3.741178  -2.544853   4.169033  -0.070600   0.679485   0.107588  -4.812021   5.244977   1.143221   1.516165  15.241578   4.090844  12.108211  36.904547  -0.002271  40.132624  -0.006534   9.939796   4.449206   0.410822   5.718374   5.050062 -16.060202  17.409070  -6.134528 -45.045805   0.000407  -7.695790  -0.002413   9.689831  -1.561883  -7.196915  13.587028   9.309867   1.460910  20.797497  -0.000870  -0.007576 -22.600266  13.843297  -8.707136  -7.229000   0.001475   0.002268 -20.612803 -11.863543   1.885398  11.507598  -0.003288   0.010042  -8.982113  -2.550959  -4.160698  -1.791340   0.000754  -0.002912
 -3.798469   0.876598   4.652398 -174.414453 -42.651897 -171.649660   7.855293   3.776359  -2.612380   4.161964  -0.036735   0.694287   0.077163  -4.753333   5.267875   1.292649   1.519710  15.295232   4.365465  12.062240  37.075422  -0.002440  39.234550  -0.008812   9.939155   4.372715   0.460148   5.654743   5.075984 -16.031187  17.400401  -6.232227 -44.994455   0.000560  -7.609193  -0.002360   9.648065  -1.584638  -7.161919  13.846658   9.496548   1.131521  21.264713  -0.001033  -0.008560 -22.409623  14.139128  -8.643191  -8.742892   0.002440   0.004074 -20.609322 -12.188315   1.787036  12.219510  -0.001179   0.001201  -8.775721  -2.837153  -4.040551  -1.645201   0.001048  -0.003947
 -3.806568   0.875481   4.648037 -174.712991 -41.807332 -171.855975   7.688285   3.809565  -2.713374   4.130470  -0.011302   0.686885   0.041914  -4.698453   5.284324   1.439579   1.512795  15.327236   4.626769  12.015067  37.234314  -0.002049  38.398222  -0.011119   9.938411   4.290494   0.526892   5.600751   5.104569 -15.975877  17.397105  -6.318297 -44.939184   0.000711  -7.528411  -0.002330   9.606448  -1.613817  -7.130522  14.100836   9.658239   0.692081  21.742653  -0.001238  -0.009779 -21.917619  14.380756  -8.566240 -12.183347   0.006499   0.011783 -20.602078 -12.485945   1.666611  12.903640   0.000231  -0.006064  -8.582458  -3.103814  -3.927749  -1.515317   0.001229  -0.004663
 -3.814733   0.874496   4.643557 -175.010828 -40.977647 -172.124930   7.519494   3.810089  -2.747768   4.096579  -0.010621   0.708262   0.007282  -4.648389   5.303140   1.584792   1.493811  15.362660   4.877153  11.958043  37.373716  -0.001597  37.608487  -0.013256   9.938030   4.174577   0.573331   5.544030   5.125110 -15.938422  17.390275  -6.401942 -44.883260   0.000830  -7.452555  -0.002309   9.568493  -1.630763  -7.075311  14.331816   9.812514   0.324829  22.160677  -0.001410  -0.010395 -21.799863  14.629199  -8.520028 -13.315920   0.005150   0.012759 -20.533338 -12.770495   1.623581  13.553059   0.001173  -0.011270  -8.400688  -3.353365  -3.821395  -1.390433   0.001343  -0.005116
 -3.822971   0.873532   4.639028 -175.334296 -40.138065 -172.413092   7.346543   3.794509  -2.775246   4.054861  -0.026391   0.738523  -0.026724  -4.602130   5.323010   1.727724   1.466593  15.392823   5.115586  11.898953  37.504355  -0.001133  36.869771  -0.015023   9.937251   4.049814   0.615336   5.486382   5.140013 -15.895118  17.381035  -6.482728 -44.827212   0.000918  -7.383742  -0.002275   9.531386  -1.654166  -7.014660  14.538221   9.952312  -0.053249  22.560774  -0.001553  -0.010868 -21.612729  14.853444  -8.472705 -14.596784   0.004033   0.014467 -20.439656 -13.033462   1.594331  14.169395   0.001805  -0.015080  -8.230319  -3.585496  -3.721102  -1.275584   0.001402  -0.005346
 -3.831152   0.872709   4.634182 -175.493250 -39.303401 -172.647823   7.249791   3.795637  -2.839241   4.044462  -0.029777   0.834296  -0.082847  -4.572875   5.355915   1.719128   1.414457  15.452317   5.390964  11.729878  37.713808  -0.000357  35.556711  -0.021499   9.934064   4.279035   0.614319   5.442054   5.140860 -15.850917  17.268295  -6.597217 -44.652445   0.001171  -7.287148  -0.002375   9.462750  -1.635740  -7.020624  14.404490   9.959025  -0.258468  23.888384  -0.003776  -0.018306 -21.075867  14.917997  -8.187577 -17.226203   0.012712   0.027207 -20.231849 -13.186120   1.599486  15.130029   0.002976  -0.020349  -7.892309  -3.618993  -3.410384  -1.080465   0.001366  -0.005789
 -3.838811   0.873133   4.629703 -175.535061 -38.662035 -172.527739   7.300659   3.696373  -3.141138   4.074824  -0.116825   0.852422  -0.144647  -4.547359   5.379402   1.730548   1.371522  15.600596   5.664286  11.551688  37.939309  -0.001718  34.286420  -0.024672   9.928308   4.242887   0.613682   5.316831   5.060674 -15.791364  17.113365  -6.749318 -44.423256   0.001273  -7.213006  -0.002354   9.391214  -1.638685  -6.897393  14.253639   9.913019  -0.686114  25.336211  -0.004857  -0.022690 -20.150090  14.901487  -7.920975 -20.108458   0.022436   0.036494 -20.339627 -13.267149   1.157687  16.423093   0.005026  -0.025738  -7.263995  -3.619499  -3.218532  -0.838598   0.001747  -0.006073
 -3.846393   0.873837   4.624987 -175.542869 -37.968713 -172.468830   7.305211   3.623730  -3.349827   4.132715  -0.202515   0.874154  -0.187861  -4.519390   5.388249   1.782299   1.296257  15.712620   5.948094  11.363318  38.157890  -0.002433  33.094690  -0.027293   9.926661   4.149818   0.704792   5.210014   5.000051 -15.713887  16.972921  -6.889086 -44.218046   0.001321  -7.148570  -0.002272   9.318857  -1.684429  -6.774302  14.109694   9.897029  -1.030276  26.750841  -0.006302  -0.026332 -19.201093  14.907075  -7.671232 -21.961406   0.025191   0.039990 -20.273452 -13.334550   0.828793  17.561263   0.006166  -0.029095  -6.831526  -3.628260  -2.994422  -0.630108   0.001844  -0.006191
 -3.853904   0.874619   4.620104 -175.559350 -37.242472 -172.463413   7.268205   3.547767  -3.516427   4.178482  -0.293004   0.909191  -0.229820  -4.492710   5.396919   1.854312   1.198490  15.799458   6.230048  11.168151  38.357616  -0.002395  31.976336  -0.029739   9.926491   4.028569   0.821109   5.126594   4.958505 -15.625997  16.853613  -7.008452 -44.024608   0.001365  -7.085017  -0.002207   9.249250  -1.727863  -6.659899  13.966179   9.881251  -1.332572  28.099932  -0.007892  -0.029254 -18.258961  14.921009  -7.438731 -23.113277   0.024195   0.039479 -20.124878 -13.399358   0.563863  18.591790   0.006723  -0.031182  -6.464151  -3.638337  -2.774335  -0.451674   0.001827  -0.006152
 -3.861333   0.875389   4.615112 -175.591852 -36.483203 -172.497867   7.202554   3.467089  -3.658222   4.207593  -0.388297   0.950922  -0.273264  -4.468181   5.406346   1.934476   1.088825  15.865327   6.502813  10.972882  38.537347  -0.001868  30.928568  -0.031860   9.926611   3.890354   0.932097   5.060114   4.928882 -15.530074  16.751439  -7.111052 -43.838786   0.001407  -7.021955  -0.002163   9.184152  -1.755004  -6.548961  13.825965   9.864537  -1.616728  29.374798  -0.009451  -0.031488 -17.337828  14.936565  -7.223464 -23.763381   0.021380   0.036188 -19.931519 -13.459179   0.338251  19.551553   0.006923  -0.032522  -6.134447  -3.648193  -2.564411  -0.291797   0.001764  -0.006048
